<svg xmlns="http://www.w3.org/2000/svg" width="22.821" height="22.85" viewBox="0 0 22.821 22.85">
  <path id="Caminho_2731" data-name="Caminho 2731" d="M10.9-511.96a12.25,12.25,0,0,0-7.651,3.79,10.724,10.724,0,0,0-2.687,5.763,15.46,15.46,0,0,0,0,3.634,10.829,10.829,0,0,0,2.531,5.593,11.906,11.906,0,0,0,9.263,4.013,10.61,10.61,0,0,0,7.317-2.955,12.382,12.382,0,0,0,3.352-6.183,11.484,11.484,0,0,0-2.379-9.642,12,12,0,0,0-2.669-2.357A11.586,11.586,0,0,0,10.9-511.96Zm.6,4.018v3.308l-.388-.027a11.967,11.967,0,0,1-2.978-.647,7.361,7.361,0,0,1-1.1-.491c0-.058.344-1.049.491-1.411A12.306,12.306,0,0,1,8.59-509.2a5.456,5.456,0,0,1,2.053-1.8,3.877,3.877,0,0,1,.8-.246A28.486,28.486,0,0,1,11.5-507.942Zm1.362-3.138c1.513.536,2.83,2.268,3.683,4.844a3.1,3.1,0,0,1,.125.455c-.009.013-.219.107-.464.214a10.986,10.986,0,0,1-3.62.906l-.371.031v-6.625l.17.031A4.115,4.115,0,0,1,12.862-511.081Zm-4.094.58a10.315,10.315,0,0,0-2.205,3.835c-.094.263-.17.491-.179.5a8.343,8.343,0,0,1-1.2-.821c-.223-.179-.558-.469-.741-.643l-.335-.317.4-.384A10.77,10.77,0,0,1,8.5-510.719c.357-.116.661-.214.67-.219S9-510.741,8.768-510.5Zm6.571-.183a11.275,11.275,0,0,1,4.062,2.536l.2.21-.335.308c-.183.174-.5.442-.692.6a9.217,9.217,0,0,1-1.245.862c0-.009-.1-.268-.205-.576a10.106,10.106,0,0,0-2.183-3.759l-.42-.437.241.071C14.9-510.826,15.156-510.746,15.339-510.683Zm-11.3,3.678a11.825,11.825,0,0,0,1.915,1.455l.228.143-.058.259a20.787,20.787,0,0,0-.513,3.928v.281H1.188v-.219a12.515,12.515,0,0,1,.2-1.58,10.992,10.992,0,0,1,1.562-3.736,5.212,5.212,0,0,1,.679-.893A5.233,5.233,0,0,1,4.036-507.005Zm16.236-.156a11.064,11.064,0,0,1,1.853,3.629,11.068,11.068,0,0,1,.4,2.4v.192H18.12l-.027-.661a20.145,20.145,0,0,0-.446-3.348l-.107-.464.268-.161a13.45,13.45,0,0,0,2.062-1.612.859.859,0,0,1,.205-.183A.929.929,0,0,1,20.272-507.161ZM7.241-504.885a12.064,12.064,0,0,0,3.79.946l.446.031.013,1.482.009,1.487H6.317l.027-.5c.036-.62.143-1.75.2-2.107a13.451,13.451,0,0,1,.312-1.5A3.345,3.345,0,0,1,7.241-504.885Zm9.763.451a20.239,20.239,0,0,1,.366,3.013l.027.482H12.214l.009-1.487.013-1.482.446-.031a11.242,11.242,0,0,0,2-.335,11.67,11.67,0,0,0,1.924-.674,1.141,1.141,0,0,1,.228-.1A2.274,2.274,0,0,1,17-504.434Zm-11.4,4.491a21.039,21.039,0,0,0,.509,3.924l.062.259-.5.321a12.769,12.769,0,0,0-1.71,1.344l-.339.321-.156-.179a12.309,12.309,0,0,1-1.129-1.768,10.944,10.944,0,0,1-.96-2.705,12.513,12.513,0,0,1-.2-1.58v-.219H5.608Zm5.884,1.2-.013,1.487-.469.031a11.631,11.631,0,0,0-3.638.893c-.219.1-.433.188-.473.2-.058.018-.089-.089-.187-.6a20.155,20.155,0,0,1-.366-3.018l-.027-.478H11.5Zm5.879-1c-.04.719-.112,1.455-.183,1.955a12.281,12.281,0,0,1-.33,1.674,3.141,3.141,0,0,1-.362-.152,11.273,11.273,0,0,0-3.812-.955l-.446-.031-.013-1.487-.009-1.482H17.4Zm5.156-.29a11.072,11.072,0,0,1-.714,3.335,11.5,11.5,0,0,1-1.58,2.75l-.156.179-.281-.272a12.828,12.828,0,0,0-2.053-1.585l-.2-.12.1-.46a19.793,19.793,0,0,0,.451-3.357l.027-.656h4.406ZM11.5-493.211v3.308l-.143-.031c-1.732-.344-3.192-2.067-4.147-4.888-.1-.281-.174-.522-.174-.54a9.957,9.957,0,0,1,1.46-.616,11.56,11.56,0,0,1,2.817-.531l.187-.009Zm1.942-3.192a11.969,11.969,0,0,1,2.031.509,7.919,7.919,0,0,1,1.205.531c0,.018-.076.259-.174.54a7.88,7.88,0,0,1-3.062,4.477,4.145,4.145,0,0,1-1.058.406l-.17.031v-6.625l.371.031C12.786-496.483,13.174-496.439,13.442-496.4ZM6.5-494.68a13.442,13.442,0,0,0,.674,1.665,8.437,8.437,0,0,0,1.625,2.379l.4.411-.246-.071a10.755,10.755,0,0,1-4.491-2.585l-.348-.335.357-.335c.2-.183.513-.46.705-.616a13.275,13.275,0,0,1,1.2-.835A1.573,1.573,0,0,1,6.5-494.68Zm11.33-.018a11.367,11.367,0,0,1,1.442,1.165l.335.317-.4.384a10.7,10.7,0,0,1-4.3,2.486l-.375.116.4-.411a9.723,9.723,0,0,0,2.053-3.379c.1-.259.219-.585.263-.728a.759.759,0,0,1,.107-.254C17.361-495,17.576-494.863,17.826-494.7Z" transform="translate(-0.449 512.01)" fill="#288b11"/>
</svg>
