<svg xmlns="http://www.w3.org/2000/svg" width="635.728" height="829.093" viewBox="0 0 635.728 829.093">
  <g id="png_HOME_" data-name="png HOME " transform="translate(-714.301 59.046)">
    <g id="Vetores_Scala" data-name="Vetores Scala" transform="translate(-226 -3.228)" opacity="0.85">
      <path id="Caminho_1245" data-name="Caminho 1245" d="M110.35,3177.866c0,23.954,15.919,43.4,35.594,43.4s35.594-19.446,35.594-43.4v-77.108c0-23.984-15.919-43.437-35.594-43.437s-35.594,19.454-35.594,43.438Z" transform="translate(1394.491 -2640.347)" fill="#335e76"/>
      <path id="Caminho_1246" data-name="Caminho 1246" d="M62.5,3163.574c0,25.325,16.849,45.854,37.6,45.854s37.64-20.529,37.64-45.854v-79.932c0-25.329-16.849-45.862-37.64-45.862s-37.6,20.534-37.6,45.862Z" transform="translate(1264.369 -2692.178)" fill="#3d717f"/>
      <path id="Caminho_1247" data-name="Caminho 1247" d="M18.24,3146.271c0,26.743,17.779,48.348,39.723,48.348s39.76-21.716,39.76-48.348v-82.718c0-26.781-17.816-48.352-39.76-48.352s-39.723,21.682-39.723,48.352Z" transform="translate(1144.01 -2752.046)" fill="#4f8aa2"/>
      <path id="Caminho_1230" data-name="Caminho 1230" d="M34.28,3217.4c0,7.22,4.8,13.06,10.675,13.06s10.712-5.84,10.712-13.06v-43.853c0-7.216-4.8-13.052-10.712-13.052s-10.675,5.836-10.675,13.052Z" transform="translate(1014.44 -2860.978)" fill="#0f0742"/>
      <path id="Caminho_1231" data-name="Caminho 1231" d="M5.13,3260.867c0,8.587,5.691,15.546,12.757,15.546s12.72-6.958,12.72-15.546v-46.681c0-8.6-5.691-15.546-12.72-15.546S5.13,3205.6,5.13,3214.187Z" transform="translate(935.171 -2759.816)" fill="#0f0742"/>
      <path id="Caminho_1232" data-name="Caminho 1232" d="M34.47,3303.35c0,9.894,6.621,17.928,14.877,17.928s14.877-8.031,14.877-17.928v-49.243c0-9.894-6.583-17.925-14.877-17.925s-14.877,8.031-14.877,17.925Z" transform="translate(1014.957 -2662.304)" fill="#0f0742"/>
      <path id="Caminho_1233" data-name="Caminho 1233" d="M80.9,3326.31c0,11.158,7.439,20.2,16.588,20.2s16.551-9.037,16.551-20.2V3274.5c0-11.158-7.439-20.2-16.551-20.2S80.9,3263.342,80.9,3274.5Z" transform="translate(1141.217 -2613.029)" fill="#0f0742"/>
      <path id="Caminho_1234" data-name="Caminho 1234" d="M130.2,3339.783c0,12.384,8.22,22.32,18.6,22.32s18.6-10.078,18.6-22.32v-54.261c0-12.426-8.257-22.32-18.6-22.32s-18.6,10.043-18.6,22.32Z" transform="translate(1275.281 -2588.828)" fill="#0f0742"/>
      <path id="Caminho_1498" data-name="Caminho 1498" d="M37.29,3074.541c0,28.829,19.155,52.075,42.773,52.075s42.81-23.361,42.81-52.075v-86.81c0-28.829-19.118-52.071-42.81-52.071s-42.773,23.4-42.773,52.071Z" transform="translate(1068.982 -2900.018)" fill="#4f8aa2"/>
      <path id="Caminho_1499" data-name="Caminho 1499" d="M85.13,3058.97c0,29.128,19.341,52.708,43.182,52.708s43.219-23.581,43.219-52.708v-87.325c0-29.087-19.341-52.706-43.219-52.706s-43.182,23.623-43.182,52.706Z" transform="translate(1199.076 -2945.482)" fill="#4f8aa2"/>
      <path id="Caminho_1500" data-name="Caminho 1500" d="M135.42,3049.54c0,28.637,19.006,51.849,42.512,51.849s42.512-23.212,42.512-51.849v-86.4c0-28.641-19.006-52.071-42.512-52.071s-42.512,23.242-42.512,52.071Z" transform="translate(1335.832 -2966.889)" fill="#4f8aa2"/>
    </g>
    <g id="Grupo_850" data-name="Grupo 850" transform="translate(758.768 224.701)">
      <path id="Caminho_1501" data-name="Caminho 1501" d="M828.166,674.5c-9.152-7.734-14.711-19.95-13.253-31.843s10.488-22.826,22.2-25.352,25.065,4.466,28.622,15.907c1.958-22.059,4.214-45.043,15.942-63.828,10.62-17.01,29.013-29.181,48.947-31.358s40.922,6.046,53.354,21.78,15.476,38.607,6.769,56.671c-6.414,13.307-18.231,23.21-30.613,31.267A197.576,197.576,0,0,1,825,677.3Z" transform="translate(-780.873 -433.507)" fill="#275a68"/>
      <path id="Caminho_1503" data-name="Caminho 1503" d="M395.127,660.849c12.571-10.622,20.206-27.4,18.2-43.737s-14.4-31.352-30.493-34.821-34.427,6.133-39.313,21.849c-2.689-30.3-5.788-61.866-21.9-87.668-14.586-23.363-39.849-40.08-67.229-43.071s-56.207,8.3-73.282,29.915-21.256,53.027-9.3,77.838c8.81,18.277,25.041,31.879,42.047,42.945a271.37,271.37,0,0,0,185.6,40.6" transform="translate(-165 -316.891)" fill="#0f0742"/>
      <path id="Caminho_1504" data-name="Caminho 1504" d="M216.584,484.238a444,444,0,0,1,61.876,61.443,450.355,450.355,0,0,1,48.8,72.218,448.541,448.541,0,0,1,20.9,44.245c1.255,3.075-3.739,4.414-4.98,1.373a440.721,440.721,0,0,0-40.27-76.193A443.5,443.5,0,0,0,248.894,520.6a442.433,442.433,0,0,0-35.962-32.715c-2.578-2.1,1.095-5.734,3.652-3.652Z" transform="translate(-173.39 -318.797)" fill="#fff"/>
      <path id="Caminho_1505" data-name="Caminho 1505" d="M724.416,539.888H424.5V287.366c0-53.726,53.264-97.435,118.734-97.435h62.449c65.47,0,118.734,43.709,118.734,97.435Z" transform="translate(-276.564 -189.931)" fill="#275a68"/>
      <path id="Caminho_1506" data-name="Caminho 1506" d="M661.967,523.16H424.5V282.71c-.066-19.6,7.878-38.709,22.675-54.539.546-.581,1.09-1.154,1.651-1.721a110.892,110.892,0,0,1,25.27-19.166c.542-.308,1.086-.611,1.639-.914a132.823,132.823,0,0,1,25.86-10.568c.543-.161,1.1-.322,1.649-.477a146.641,146.641,0,0,1,25.561-4.71c.54-.058,1.1-.1,1.65-.148a153.666,153.666,0,0,1,25.559,0c.553.045,1.108.09,1.655.149a146.612,146.612,0,0,1,25.555,4.709c.553.155,1.106.316,1.651.477a132.594,132.594,0,0,1,25.56,10.411c.552.3,1.1.6,1.648.9a117.6,117.6,0,0,1,15.105,9.993,104.377,104.377,0,0,1,10.456,9.342c.559.565,1.1,1.139,1.648,1.719,14.8,15.83,22.742,34.937,22.676,54.54Z" transform="translate(-268.023 -173.203)" fill="#ccc"/>
      <path id="Caminho_1518" data-name="Caminho 1518" d="M690.108,709.149H266.179c-.378,0-.684-.438-.684-.978s.306-.978.684-.978H690.108c.378,0,.684.438.684.978s-.306.978-.684.978Z" transform="translate(-182.92 -358.663)" fill="#3f3d56"/>
      <path id="Caminho_1519" data-name="Caminho 1519" d="M609.66,546.4H502.841a5.312,5.312,0,0,1-5.341-5.271V302.7a5.312,5.312,0,0,1,5.341-5.271H609.66A5.313,5.313,0,0,1,615,302.7V541.13A5.313,5.313,0,0,1,609.66,546.4Z" transform="translate(-282.402 -246.978)" fill="#fff"/>
      <rect id="Retângulo_1586" data-name="Retângulo 1586" width="117.501" height="1.643" transform="translate(215.098 135.744)" fill="#ccc"/>
      <rect id="Retângulo_1587" data-name="Retângulo 1587" width="117.501" height="1.643" transform="translate(215.422 212.658)" fill="#ccc"/>
      <rect id="Retângulo_1588" data-name="Retângulo 1588" width="1.643" height="249.793" transform="translate(254.927 50.277)" fill="#ccc"/>
      <rect id="Retângulo_1589" data-name="Retângulo 1589" width="1.643" height="249.793" transform="translate(288.692 50.277)" fill="#ccc"/>
    </g>
  </g>
</svg>
